<svg width="52" height="52" viewBox="0 0 52 52" fill="none" xmlns="http://www.w3.org/2000/svg">
<g clip-path="url(#clip0_106031_52)">
<path d="M11.4167 44.7548C9.4828 44.7548 7.62813 43.957 6.26068 42.537C4.89323 41.1169 4.125 39.1909 4.125 37.1827C4.125 35.1744 4.89323 33.2484 6.26068 31.8284C7.62813 30.4084 9.4828 29.6106 11.4167 29.6106C13.3505 29.6106 15.2052 30.4084 16.5727 31.8284C17.9401 33.2484 18.7083 35.1744 18.7083 37.1827C18.7083 39.1909 17.9401 41.1169 16.5727 42.537C15.2052 43.957 13.3505 44.7548 11.4167 44.7548ZM11.4167 26.3654C8.65399 26.3654 6.00447 27.5051 4.05097 29.5337C2.09747 31.5623 1 34.3138 1 37.1827C1 40.0516 2.09747 42.803 4.05097 44.8317C6.00447 46.8603 8.65399 48 11.4167 48C14.1793 48 16.8289 46.8603 18.7824 44.8317C20.7359 42.803 21.8333 40.0516 21.8333 37.1827C21.8333 34.3138 20.7359 31.5623 18.7824 29.5337C16.8289 27.5051 14.1793 26.3654 11.4167 26.3654ZM31.8333 22.0385H40.5833V18.1442H33.9167L29.875 11.0697C29.2708 9.98798 28.0833 9.27404 26.8333 9.27404C25.8542 9.27404 24.9583 9.6851 24.3333 10.3558L16.625 18.3389C15.9792 19.0096 15.5833 19.875 15.5833 20.9567C15.5833 22.3197 16.2708 23.4663 17.3542 24.137L24.3333 28.5288V39.3462H28.0833V25.2837L23.3958 21.7139L28.2292 16.6298L31.8333 22.0385ZM40.5833 44.7548C38.6495 44.7548 36.7948 43.957 35.4273 42.537C34.0599 41.1169 33.2917 39.1909 33.2917 37.1827C33.2917 35.1744 34.0599 33.2484 35.4273 31.8284C36.7948 30.4084 38.6495 29.6106 40.5833 29.6106C42.5172 29.6106 44.3719 30.4084 45.7393 31.8284C47.1068 33.2484 47.875 35.1744 47.875 37.1827C47.875 39.1909 47.1068 41.1169 45.7393 42.537C44.3719 43.957 42.5172 44.7548 40.5833 44.7548ZM40.5833 26.3654C37.8207 26.3654 35.1711 27.5051 33.2176 29.5337C31.2641 31.5623 30.1667 34.3138 30.1667 37.1827C30.1667 40.0516 31.2641 42.803 33.2176 44.8317C35.1711 46.8603 37.8207 48 40.5833 48C41.9513 48 43.3058 47.7202 44.5696 47.1766C45.8334 46.633 46.9818 45.8362 47.949 44.8317C48.9163 43.8272 49.6836 42.6347 50.2071 41.3223C50.7306 40.0099 51 38.6032 51 37.1827C51 35.7621 50.7306 34.3555 50.2071 33.0431C49.6836 31.7307 48.9163 30.5382 47.949 29.5337C46.9818 28.5292 45.8334 27.7324 44.5696 27.1888C43.3058 26.6452 41.9513 26.3654 40.5833 26.3654ZM34.3333 10.7885C36.4167 10.7885 38.0833 9.05769 38.0833 6.89423C38.0833 4.73077 36.4167 3 34.3333 3C32.25 3 30.5833 4.73077 30.5833 6.89423C30.5833 9.05769 32.25 10.7885 34.3333 10.7885Z" fill="white"/>
</g>
<defs>
<clipPath id="clip0_106031_52">
<rect width="50" height="45" fill="white" transform="translate(1 3)"/>
</clipPath>
</defs>
</svg>
