<svg width="116" height="116" viewBox="0 0 116 116" fill="none" xmlns="http://www.w3.org/2000/svg">
<path fill-rule="evenodd" clip-rule="evenodd" d="M14 36C14 23.8497 23.8497 14 36 14H80C92.1503 14 102 23.8497 102 36V80C102 92.1503 92.1503 102 80 102H36C23.8497 102 14 92.1503 14 80V36ZM80.352 58C80.352 70.3446 70.3447 80.352 58 80.352C45.6553 80.352 35.648 70.3446 35.648 58C35.648 45.6553 45.6553 35.648 58 35.648C70.3447 35.648 80.352 45.6553 80.352 58ZM85.456 39.168C89.2469 39.168 92.32 36.0949 92.32 32.304C92.32 28.5131 89.2469 25.44 85.456 25.44C81.6651 25.44 78.592 28.5131 78.592 32.304C78.592 36.0949 81.6651 39.168 85.456 39.168Z" fill="#F8F8F8"/>
</svg>
