<svg width="52" height="52" viewBox="0 0 52 52" fill="none" xmlns="http://www.w3.org/2000/svg">
<path d="M46.7398 43.2272C46.7398 43.6974 46.5551 44.1483 46.2262 44.4808C45.8974 44.8132 45.4514 45 44.9864 45H13.425C12.96 45 12.5141 44.8132 12.1852 44.4808C11.8563 44.1483 11.6717 43.6974 11.6717 43.2272C11.6717 42.7572 11.8563 42.3062 12.1852 41.9738C12.5141 41.6413 12.96 41.4546 13.425 41.4546H44.9864C45.4514 41.4546 45.8974 41.6413 46.2262 41.9738C46.5551 42.3062 46.7398 42.7572 46.7398 43.2272ZM52 25.5V30.8182C52 31.2884 51.8152 31.7392 51.4864 32.0717C51.1576 32.4041 50.7116 32.5909 50.2466 32.5909H11.6278C9.74133 32.5975 7.90351 31.9856 6.39003 30.847C4.87656 29.7084 3.76897 28.1044 3.23336 26.2756L0.14298 15.8829C-0.0104947 15.3512 -0.0409011 14.7907 0.0541128 14.2451C0.149126 13.6995 0.367013 13.1833 0.69092 12.7364C1.02214 12.2956 1.4497 11.9382 1.94017 11.6922C2.43065 11.4462 2.97077 11.3182 3.51829 11.3182H7.28811C7.54409 11.3187 7.79677 11.3767 8.02795 11.4878C8.25913 11.5989 8.46308 11.7604 8.62508 11.9608L12.4826 16.6363H16.2524L14.2798 10.6756C14.1022 10.1417 14.053 9.5728 14.1363 9.01589C14.2195 8.45898 14.4327 7.93013 14.7583 7.47313C15.084 7.01613 15.5126 6.64414 16.0087 6.38796C16.5049 6.13179 17.0542 5.99881 17.6113 6.00002H21.3154C21.5589 5.99873 21.7999 6.04937 22.0227 6.14865C22.2455 6.24792 22.4452 6.3936 22.6085 6.57616L31.7262 16.6363H43.233C45.5582 16.6363 47.7881 17.5703 49.4322 19.2324C51.0763 20.8947 52 23.1493 52 25.5ZM48.4932 25.5C48.4874 24.0913 47.9313 22.742 46.9461 21.7459C45.9609 20.7499 44.6263 20.1877 43.233 20.1819H30.9592C30.7156 20.1831 30.4746 20.1325 30.2518 20.0332C30.029 19.9339 29.8294 19.7882 29.666 19.6057L20.5482 9.54547H17.6113L20.351 17.8551C20.4368 18.1216 20.4597 18.4048 20.4178 18.6818C20.3759 18.9588 20.2705 19.2221 20.1099 19.4506C19.948 19.6792 19.734 19.865 19.486 19.9922C19.238 20.1196 18.9634 20.1846 18.6852 20.1819H11.6717C11.4156 20.1813 11.163 20.1234 10.9318 20.0123C10.7006 19.9012 10.4966 19.7396 10.3347 19.5392L6.47716 14.8637H3.49638L6.58675 25.2563C6.90895 26.3539 7.57434 27.3164 8.48316 27.9996C9.39198 28.6827 10.4953 29.0497 11.6278 29.0454H48.4932V25.5Z" fill="white"/>
</svg>
