<svg width="243" height="88" viewBox="0 0 243 88" fill="none" xmlns="http://www.w3.org/2000/svg">
<g clip-path="url(#clip0_106059_51)">
<path d="M137.291 0.734857C130.364 2.34386 126.924 5.99386 126.89 11.7709C126.851 18.4979 130.619 21.5869 142.702 24.7369C148.575 26.2669 150.571 28.9189 147.793 31.4949C144.64 34.4169 138.47 32.5219 137.693 28.3899C137.308 26.3279 137.327 26.3339 130.856 26.6939L125.121 27.0119L125.397 28.8179C125.822 31.6019 128.119 35.8999 130.077 37.5759C135.879 42.5399 151.857 42.0309 157.327 36.7039L158.927 35.1459L159.234 36.9569C160.359 43.6199 167.126 49.8799 174.911 51.4609L177.411 51.9699L175.934 53.9049C171.06 60.2889 170.922 73.3449 175.658 80.1259C182.906 90.5009 203.302 90.1999 210.013 79.6199L211.262 77.6509V87.0419H242.872V76.9449H223.994V47.5289H211.262L211.237 52.0289C211.215 55.7049 211.116 56.3719 210.689 55.6709C208.27 51.7029 203.559 48.4059 198.941 47.4529L196.452 46.9379L198.978 45.0399C206.836 39.1339 211.73 28.3589 210.473 19.7329C207.168 -2.93614 174.515 -3.28714 162.078 19.2099C161.276 20.6579 160.593 21.8899 160.559 21.9469C160.525 22.0039 159.406 20.9909 158.07 19.6999C155.3 17.0169 153.075 16.0349 145.512 14.1619C138.475 12.4179 137.035 11.1949 139.4 8.96986C141.65 6.85486 146.549 8.22486 147.652 11.2789C148.299 13.0679 148.181 13.0509 155.662 12.5559L159.988 12.2689L159.712 10.5449C158.435 2.55786 148.383 -1.84114 137.288 0.737857L137.291 0.734857ZM2.729 20.7459V40.5009H15.461V24.6949H16.755C18.797 24.6949 20.032 26.1969 23.969 33.4759L27.651 40.2789L34.73 40.3999C38.623 40.4669 41.806 40.4029 41.806 40.2589C41.806 38.0339 33.872 25.1949 31.67 23.8569L30.463 23.1229L32.899 21.8489C41.93 17.1209 40.22 3.57586 30.323 1.45286C29.074 1.18586 22.749 0.985857 15.439 0.985857H2.729V20.7409V20.7459ZM195.495 4.42986C215.365 9.61586 213.546 37.4939 192.671 47.6719C171.403 58.0419 152.449 41.0179 162.558 20.6269C168.456 8.72986 183.542 1.31086 195.492 4.43286L195.495 4.42986ZM24.234 9.89486C28.706 12.1559 25.739 16.3299 19.405 16.6899L15.462 16.9149V9.32986L19.304 9.33586C21.503 9.33886 23.61 9.57786 24.234 9.89286V9.89486ZM188.467 13.3879C184.971 14.3159 181.416 17.8489 181.413 20.3969C181.407 24.5599 184.735 26.0609 189.971 24.2589C193.174 23.1569 193.99 23.1569 194.583 24.2619C195.587 26.1409 192.296 28.0559 190.376 26.7089C189.411 26.0339 185.853 28.1629 185.817 29.4369C185.761 31.3549 190.615 32.0809 193.588 30.5989C203.03 25.8939 200.349 15.7939 190.556 19.1719C186.641 20.5219 185.8 20.5809 185.8 19.4949C185.8 17.7909 188.463 16.5589 189.625 17.7199C190.1 18.1949 193.7 15.8079 193.7 15.0169C193.7 13.8359 190.511 12.8399 188.463 13.3859L188.467 13.3879ZM174.295 22.8609C172.2 24.3769 172.101 23.9829 175.943 29.4369C178.308 32.7919 179.217 34.4489 179.127 35.2339C178.97 36.5759 177.465 36.9329 176.407 35.8779C175.735 35.2059 175.56 35.2589 173.969 36.6229C169.95 40.0659 176.059 43.0209 180.598 39.8319C185.585 36.3279 185.593 34.1539 180.635 26.9139C176.79 21.2969 176.613 21.1849 174.293 22.8639L174.295 22.8609ZM13.138 47.0989C5.955 48.2319 1.75 52.4319 1.694 58.5289C1.638 64.7499 5.671 68.2939 15.661 70.7939C21.784 72.3269 23.8 73.4969 23.8 75.5129C23.8 81.1909 13.636 80.6229 12.561 74.8859C12.184 72.8839 12.232 72.8949 5.749 73.2459L0 73.5579L0.287 75.3579C1.598 83.6099 6.396 87.0439 17.086 87.3789C25.563 87.6429 28.477 86.8219 32.178 83.1209L34.712 80.5869L35.643 81.8439C41.029 89.1279 59.223 89.6179 65.197 82.6369C66.944 80.5979 68.904 76.7559 69.104 74.9869C69.245 73.7409 69.205 73.7189 63.881 72.1039L58.518 70.4759L57.798 72.6419C55.345 80.0249 46.084 80.1089 44.05 72.7689C43.358 70.2739 43.442 64.3149 44.207 61.7469C46.052 55.5399 53.845 54.2659 57.007 59.6569C58.326 61.9069 57.972 61.8649 63.957 60.5119C69.655 59.2239 69.41 59.4519 68.111 56.6529C62.958 45.5659 45.636 42.9649 36.451 51.8939L33.889 54.3859L32.826 52.5719C30.177 48.0489 21.821 45.7259 13.144 47.0989H13.138ZM134.436 47.1099C129.573 47.9539 124.769 51.0139 122.055 54.9929C121.329 56.0589 121.31 55.9719 121.287 51.8059L121.264 47.5249H108.532V61.1349H95.8V47.5249H83.068V87.0379H95.8V71.2319H108.532V87.0379H121.264V78.1049L122.639 80.1779C128.36 88.8119 146.053 90.3279 154.105 82.8719C163.423 74.2459 161.595 54.6229 150.969 49.2009C146.868 47.1079 139.671 46.1969 134.434 47.1059L134.436 47.1099ZM20.277 55.2049C21.011 55.5849 21.872 56.6139 22.339 57.6719L23.141 59.4889L31.719 59.0759L31.438 61.3149C31.067 64.2769 30.901 64.3889 28.44 63.3009C27.281 62.7889 24.038 61.7959 21.229 61.0899C14.583 59.4249 13.756 59.0679 13.416 57.7149C12.786 55.2119 17.182 53.6029 20.281 55.2059L20.277 55.2049ZM141.965 56.7569C148.467 58.5629 149.784 73.4859 143.754 77.0349C139.251 79.6839 133.553 77.4289 132.217 72.4649C129.562 62.6019 134.481 54.6789 141.965 56.7569ZM195.045 56.7459C202.599 58.8439 202.445 75.8199 194.854 77.8649C188.751 79.5069 184.69 75.2659 184.721 67.2839C184.755 58.9899 188.684 54.9789 195.046 56.7479L195.045 56.7459Z" fill="#F8F8F8"/>
</g>
<defs>
<clipPath id="clip0_106059_51">
<rect width="243" height="88" fill="white"/>
</clipPath>
</defs>
</svg>
