<svg width="116" height="116" viewBox="0 0 116 116" fill="none" xmlns="http://www.w3.org/2000/svg">
<path d="M114.274 23.8622C110.239 25.6505 105.903 26.8589 101.345 27.405C106.048 24.591 109.567 20.1621 111.244 14.9447C106.826 17.5692 101.99 19.4165 96.947 20.4064C93.5558 16.7856 89.0641 14.3856 84.1692 13.5792C79.2743 12.7727 74.2501 13.6049 69.8766 15.9464C65.5031 18.288 62.0251 22.008 59.9824 26.5288C57.9397 31.0496 57.4467 36.1183 58.58 40.948C49.6271 40.4985 40.8688 38.1715 32.8735 34.1181C24.8782 30.0646 17.8245 24.3753 12.1703 17.4194C10.237 20.7544 9.12531 24.621 9.12531 28.739C9.12315 32.4462 10.0361 36.0965 11.7831 39.3662C13.53 42.6359 16.0571 45.4239 19.14 47.4827C15.5646 47.3689 12.0682 46.4029 8.94164 44.6649V44.9549C8.94128 50.1543 10.7398 55.1937 14.032 59.218C17.3243 63.2423 21.9074 66.0037 27.0038 67.0335C23.6871 67.9312 20.2098 68.0634 16.8345 67.4202C18.2724 71.894 21.0733 75.8062 24.8451 78.609C28.6169 81.4119 33.1707 82.9651 37.8691 83.0512C29.8933 89.3124 20.0433 92.7086 9.90348 92.6937C8.10732 92.6942 6.31268 92.5893 4.52881 92.3795C14.8213 98.9972 26.8025 102.509 39.0388 102.496C80.4605 102.496 103.105 68.1887 103.105 38.4347C103.105 37.468 103.08 36.4917 103.037 35.525C107.442 32.3398 111.244 28.3954 114.265 23.8767L114.274 23.8622V23.8622Z" fill="#F8F8F8"/>
</svg>
